<?xml version="1.0" encoding="UTF-8" standalone="no"?>
<!-- Created with Inkscape (http://www.inkscape.org/) -->

<svg
   xmlns:dc="http://purl.org/dc/elements/1.1/"
   xmlns:cc="http://creativecommons.org/ns#"
   xmlns:rdf="http://www.w3.org/1999/02/22-rdf-syntax-ns#"
   xmlns:svg="http://www.w3.org/2000/svg"
   xmlns="http://www.w3.org/2000/svg"
   xmlns:sodipodi="http://sodipodi.sourceforge.net/DTD/sodipodi-0.dtd"
   xmlns:inkscape="http://www.inkscape.org/namespaces/inkscape"
   width="131.34653mm"
   height="136.36308mm"
   viewBox="0 0 131.34653 136.36308"
   version="1.1"
   id="svg4642"
   inkscape:version="0.92.4 (5da689c313, 2019-01-14)"
   sodipodi:docname="logo.svg">
  <defs
     id="defs4636" />
  <sodipodi:namedview
     id="base"
     pagecolor="#ffffff"
     bordercolor="#666666"
     borderopacity="1.0"
     inkscape:pageopacity="0.0"
     inkscape:pageshadow="2"
     inkscape:zoom="0.7"
     inkscape:cx="100.32472"
     inkscape:cy="148.72474"
     inkscape:document-units="mm"
     inkscape:current-layer="layer1"
     showgrid="false"
     inkscape:window-width="1920"
     inkscape:window-height="1017"
     inkscape:window-x="1272"
     inkscape:window-y="104"
     inkscape:window-maximized="1"
     fit-margin-top="0"
     fit-margin-left="0"
     fit-margin-right="0"
     fit-margin-bottom="0" />
  <metadata
     id="metadata4639">
    <rdf:RDF>
      <cc:Work
         rdf:about="">
        <dc:format>image/svg+xml</dc:format>
        <dc:type
           rdf:resource="http://purl.org/dc/dcmitype/StillImage" />
        <dc:title></dc:title>
      </cc:Work>
    </rdf:RDF>
  </metadata>
  <g
     inkscape:label="Layer 1"
     inkscape:groupmode="layer"
     id="layer1"
     transform="translate(-32.370102,-33.85649)">
    <path
       id="path5205-3-3-2"
       style="opacity:0.98999999;fill:none;fill-opacity:1;stroke:#00e9ff;stroke-width:5.81668186;stroke-miterlimit:4.80000019;stroke-dasharray:none;stroke-opacity:1"
       d="M 129.80472,139.69128 A 29.719661,28.93247 2.5348986 0 1 98.834516,167.281 29.719661,28.93247 2.5348986 0 1 70.423559,137.06241 29.719661,28.93247 2.5348986 0 1 101.39376,109.47267 29.719661,28.93247 2.5348986 0 1 129.80472,139.69128 Z M 94.687603,103.55631 A 29.719661,28.93247 2.5348986 0 1 63.717402,131.14603 29.719661,28.93247 2.5348986 0 1 35.306444,100.92744 29.719661,28.93247 2.5348986 0 1 66.276646,73.337713 29.719661,28.93247 2.5348986 0 1 94.687603,103.55631 Z m 66.092677,1.31762 a 29.719661,28.93247 2.5348986 0 1 -30.97021,27.58972 29.719661,28.93247 2.5348986 0 1 -28.41096,-30.2186 29.719661,28.93247 2.5348986 0 1 30.97021,-27.589717 29.719661,28.93247 2.5348986 0 1 28.41096,30.218597 z M 129.07746,67.013658 A 29.719659,28.93247 2.5348986 0 1 98.107259,94.603378 29.719659,28.93247 2.5348986 0 1 69.696305,64.384782 29.719659,28.93247 2.5348986 0 1 100.6665,36.795061 29.719659,28.93247 2.5348986 0 1 129.07746,67.013658 Z m 4.85716,40.826772 A 35.013596,33.876949 2.5348986 0 1 97.456982,140.13565 35.013596,33.876949 2.5348986 0 1 63.975957,104.74328 35.013596,33.876949 2.5348986 0 1 100.45359,72.448058 35.013596,33.876949 2.5348986 0 1 133.93462,107.84043 Z"
       inkscape:connector-curvature="0" />
    <path
       inkscape:connector-curvature="0"
       d="M 129.80472,139.69128 A 29.719661,28.93247 2.5348986 0 1 98.834516,167.281 29.719661,28.93247 2.5348986 0 1 70.423559,137.06241 29.719661,28.93247 2.5348986 0 1 101.39376,109.47267 29.719661,28.93247 2.5348986 0 1 129.80472,139.69128 Z M 94.687603,103.55631 A 29.719661,28.93247 2.5348986 0 1 63.717402,131.14603 29.719661,28.93247 2.5348986 0 1 35.306444,100.92744 29.719661,28.93247 2.5348986 0 1 66.276646,73.337713 29.719661,28.93247 2.5348986 0 1 94.687603,103.55631 Z m 66.092677,1.31762 a 29.719661,28.93247 2.5348986 0 1 -30.97021,27.58972 29.719661,28.93247 2.5348986 0 1 -28.41096,-30.2186 29.719661,28.93247 2.5348986 0 1 30.97021,-27.589717 29.719661,28.93247 2.5348986 0 1 28.41096,30.218597 z M 129.07746,67.013658 A 29.719659,28.93247 2.5348986 0 1 98.107259,94.603378 29.719659,28.93247 2.5348986 0 1 69.696305,64.384782 29.719659,28.93247 2.5348986 0 1 100.6665,36.795061 29.719659,28.93247 2.5348986 0 1 129.07746,67.013658 Z m 4.85716,40.826772 A 35.013596,33.876949 2.5348986 0 1 97.456982,140.13565 35.013596,33.876949 2.5348986 0 1 63.975957,104.74328 35.013596,33.876949 2.5348986 0 1 100.45359,72.448058 35.013596,33.876949 2.5348986 0 1 133.93462,107.84043 Z"
       style="opacity:0.98999999;fill:none;fill-opacity:1;stroke:#00e9ff;stroke-width:5.81668186;stroke-miterlimit:4.80000019;stroke-dasharray:none;stroke-opacity:1"
       id="path5310" />
    <path
       inkscape:connector-curvature="0"
       d="M 129.80472,139.69128 A 29.719661,28.93247 2.5348986 0 1 98.834516,167.281 29.719661,28.93247 2.5348986 0 1 70.423559,137.06241 29.719661,28.93247 2.5348986 0 1 101.39376,109.47267 29.719661,28.93247 2.5348986 0 1 129.80472,139.69128 Z M 94.687603,103.55631 A 29.719661,28.93247 2.5348986 0 1 63.717402,131.14603 29.719661,28.93247 2.5348986 0 1 35.306444,100.92744 29.719661,28.93247 2.5348986 0 1 66.276646,73.337713 29.719661,28.93247 2.5348986 0 1 94.687603,103.55631 Z m 66.092677,1.31762 a 29.719661,28.93247 2.5348986 0 1 -30.97021,27.58972 29.719661,28.93247 2.5348986 0 1 -28.41096,-30.2186 29.719661,28.93247 2.5348986 0 1 30.97021,-27.589717 29.719661,28.93247 2.5348986 0 1 28.41096,30.218597 z M 129.07746,67.013658 A 29.719659,28.93247 2.5348986 0 1 98.107259,94.603378 29.719659,28.93247 2.5348986 0 1 69.696305,64.384782 29.719659,28.93247 2.5348986 0 1 100.6665,36.795061 29.719659,28.93247 2.5348986 0 1 129.07746,67.013658 Z m 4.85716,40.826772 A 35.013596,33.876949 2.5348986 0 1 97.456982,140.13565 35.013596,33.876949 2.5348986 0 1 63.975957,104.74328 35.013596,33.876949 2.5348986 0 1 100.45359,72.448058 35.013596,33.876949 2.5348986 0 1 133.93462,107.84043 Z"
       style="opacity:0.98999999;fill:none;fill-opacity:1;stroke:#00e9ff;stroke-width:5.81668186;stroke-miterlimit:4.80000019;stroke-dasharray:none;stroke-opacity:1"
       id="path5312" />
    <path
       id="path5314"
       style="opacity:0.98999999;fill:none;fill-opacity:1;stroke:#00e9ff;stroke-width:5.81668186;stroke-miterlimit:4.80000019;stroke-dasharray:none;stroke-opacity:1"
       d="M 129.80472,139.69128 A 29.719661,28.93247 2.5348986 0 1 98.834516,167.281 29.719661,28.93247 2.5348986 0 1 70.423559,137.06241 29.719661,28.93247 2.5348986 0 1 101.39376,109.47267 29.719661,28.93247 2.5348986 0 1 129.80472,139.69128 Z M 94.687603,103.55631 A 29.719661,28.93247 2.5348986 0 1 63.717402,131.14603 29.719661,28.93247 2.5348986 0 1 35.306444,100.92744 29.719661,28.93247 2.5348986 0 1 66.276646,73.337713 29.719661,28.93247 2.5348986 0 1 94.687603,103.55631 Z m 66.092677,1.31762 a 29.719661,28.93247 2.5348986 0 1 -30.97021,27.58972 29.719661,28.93247 2.5348986 0 1 -28.41096,-30.2186 29.719661,28.93247 2.5348986 0 1 30.97021,-27.589717 29.719661,28.93247 2.5348986 0 1 28.41096,30.218597 z M 129.07746,67.013658 A 29.719659,28.93247 2.5348986 0 1 98.107259,94.603378 29.719659,28.93247 2.5348986 0 1 69.696305,64.384782 29.719659,28.93247 2.5348986 0 1 100.6665,36.795061 29.719659,28.93247 2.5348986 0 1 129.07746,67.013658 Z m 4.85716,40.826772 A 35.013596,33.876949 2.5348986 0 1 97.456982,140.13565 35.013596,33.876949 2.5348986 0 1 63.975957,104.74328 35.013596,33.876949 2.5348986 0 1 100.45359,72.448058 35.013596,33.876949 2.5348986 0 1 133.93462,107.84043 Z"
       inkscape:connector-curvature="0" />
    <path
       id="path5316"
       style="opacity:0.98999999;fill:none;fill-opacity:1;stroke:#00e9ff;stroke-width:5.81668186;stroke-miterlimit:4.80000019;stroke-dasharray:none;stroke-opacity:1"
       d="M 129.80472,139.69128 A 29.719661,28.93247 2.5348986 0 1 98.834516,167.281 29.719661,28.93247 2.5348986 0 1 70.423559,137.06241 29.719661,28.93247 2.5348986 0 1 101.39376,109.47267 29.719661,28.93247 2.5348986 0 1 129.80472,139.69128 Z M 94.687603,103.55631 A 29.719661,28.93247 2.5348986 0 1 63.717402,131.14603 29.719661,28.93247 2.5348986 0 1 35.306444,100.92744 29.719661,28.93247 2.5348986 0 1 66.276646,73.337713 29.719661,28.93247 2.5348986 0 1 94.687603,103.55631 Z m 66.092677,1.31762 a 29.719661,28.93247 2.5348986 0 1 -30.97021,27.58972 29.719661,28.93247 2.5348986 0 1 -28.41096,-30.2186 29.719661,28.93247 2.5348986 0 1 30.97021,-27.589717 29.719661,28.93247 2.5348986 0 1 28.41096,30.218597 z M 129.07746,67.013658 A 29.719659,28.93247 2.5348986 0 1 98.107259,94.603378 29.719659,28.93247 2.5348986 0 1 69.696305,64.384782 29.719659,28.93247 2.5348986 0 1 100.6665,36.795061 29.719659,28.93247 2.5348986 0 1 129.07746,67.013658 Z m 4.85716,40.826772 A 35.013596,33.876949 2.5348986 0 1 97.456982,140.13565 35.013596,33.876949 2.5348986 0 1 63.975957,104.74328 35.013596,33.876949 2.5348986 0 1 100.45359,72.448058 35.013596,33.876949 2.5348986 0 1 133.93462,107.84043 Z"
       inkscape:connector-curvature="0" />
    <path
       inkscape:connector-curvature="0"
       d="M 129.80472,139.69128 A 29.719661,28.93247 2.5348986 0 1 98.834516,167.281 29.719661,28.93247 2.5348986 0 1 70.423559,137.06241 29.719661,28.93247 2.5348986 0 1 101.39376,109.47267 29.719661,28.93247 2.5348986 0 1 129.80472,139.69128 Z M 94.687603,103.55631 A 29.719661,28.93247 2.5348986 0 1 63.717402,131.14603 29.719661,28.93247 2.5348986 0 1 35.306444,100.92744 29.719661,28.93247 2.5348986 0 1 66.276646,73.337713 29.719661,28.93247 2.5348986 0 1 94.687603,103.55631 Z m 66.092677,1.31762 a 29.719661,28.93247 2.5348986 0 1 -30.97021,27.58972 29.719661,28.93247 2.5348986 0 1 -28.41096,-30.2186 29.719661,28.93247 2.5348986 0 1 30.97021,-27.589717 29.719661,28.93247 2.5348986 0 1 28.41096,30.218597 z M 129.07746,67.013658 A 29.719659,28.93247 2.5348986 0 1 98.107259,94.603378 29.719659,28.93247 2.5348986 0 1 69.696305,64.384782 29.719659,28.93247 2.5348986 0 1 100.6665,36.795061 29.719659,28.93247 2.5348986 0 1 129.07746,67.013658 Z m 4.85716,40.826772 A 35.013596,33.876949 2.5348986 0 1 97.456982,140.13565 35.013596,33.876949 2.5348986 0 1 63.975957,104.74328 35.013596,33.876949 2.5348986 0 1 100.45359,72.448058 35.013596,33.876949 2.5348986 0 1 133.93462,107.84043 Z"
       style="opacity:0.98999999;fill:none;fill-opacity:1;stroke:#00e9ff;stroke-width:5.81668186;stroke-miterlimit:4.80000019;stroke-dasharray:none;stroke-opacity:1"
       id="path5318" />
  </g>
</svg>
